# xmcd
#
# Track frame offsets:
#	150
#	19390
#	36283
#	49005
#	65476
#	82606
#	92984
#	110171
#	126881
#	146064
#	164568
#	181941
#
# Disc length: 2671 seconds
#
# Revision: 0
# Processed by: cddbd v1.5.2PL0 Copyright (c) Steve Scherf et al.
# Submitted via: audiograbber 1.83.01
#
DISCID=a80a6d0c
DTITLE=Leland Martin - Truckers For Troops
DYEAR=2009
DGENRE=Country
TTITLE0=Truckers For The Troops
TTITLE1=Windshield Time
TTITLE2=Grumpy Ol' Truck Drivers
TTITLE3=The Purple Bag
TTITLE4=That Of Truck
TTITLE5=When Haggard Sings "The Fightin' Side Of Me"
TTITLE6=The Long Rider
TTITLE7=400 Horses and 18 Wheels
TTITLE8=Shake A Truckdriver's Hand
TTITLE9=Our American Heroes
TTITLE10=Flags On The Christmas Tree
TTITLE11=American, Veteran, Truckdrivin' Son-Of-A-Gun
EXTD=
EXTT0=
EXTT1=
EXTT2=
EXTT3=
EXTT4=
EXTT5=
EXTT6=
EXTT7=
EXTT8=
EXTT9=
EXTT10=
EXTT11=
PLAYORDER=
